<?xml version="1.0" encoding="UTF-8" standalone="no"?>
<svg
   viewBox="0 0 142.03662 25.143955"
   version="1.1"
   id="svg5"
   sodipodi:docname="logo.svg"
   inkscape:version="1.4 (e7c3feb1, 2024-10-09)"
   width="142.03662"
   height="25.143955"
   xmlns:inkscape="http://www.inkscape.org/namespaces/inkscape"
   xmlns:sodipodi="http://sodipodi.sourceforge.net/DTD/sodipodi-0.dtd"
   xmlns="http://www.w3.org/2000/svg"
   xmlns:svg="http://www.w3.org/2000/svg">
  <sodipodi:namedview
     id="namedview5"
     pagecolor="#505050"
     bordercolor="#eeeeee"
     borderopacity="1"
     inkscape:showpageshadow="0"
     inkscape:pageopacity="0"
     inkscape:pagecheckerboard="0"
     inkscape:deskcolor="#505050"
     inkscape:zoom="2.1087482"
     inkscape:cx="49.555467"
     inkscape:cy="58.802659"
     inkscape:window-width="1648"
     inkscape:window-height="1055"
     inkscape:window-x="82"
     inkscape:window-y="34"
     inkscape:window-maximized="1"
     inkscape:current-layer="svg5" />
  <defs
     id="defs1">
    <style
       id="style1">
      @import url('https://fonts.googleapis.com/css2?family=Outfit:wght@700=swap');
    </style>
    <filter
       id="shadow">
      <feDropShadow
         dx="0"
         dy="1"
         stdDeviation="2"
         flood-opacity="0.2" />
    </filter>
  </defs>
  <!-- Icon -->
  <g
     transform="matrix(0.0168,0,0,0.0168,-3.0996504,-4.585996)"
     id="g5">
    <path
       fill="#17ab55"
       d="m 1272.43,713.518 c 41.522,-41.522 89.985,-73.689 144.041,-95.611 52.167,-21.148 107.255,-31.876 163.749,-31.876 56.486,0 111.582,10.728 163.749,31.876 54.056,21.922 102.519,54.089 144.033,95.611 41.522,41.522 73.689,89.985 95.611,144.041 21.156,52.167 31.884,107.263 31.884,163.749 0,56.486 -10.728,111.582 -31.884,163.749 -21.914,54.056 -54.089,102.519 -95.603,144.041 -41.522,41.522 -89.985,73.689 -144.041,95.611 -52.167,21.148 -107.263,31.876 -163.749,31.876 -56.495,0 -111.582,-10.728 -163.749,-31.876 -54.056,-21.922 -102.519,-54.089 -144.041,-95.611 l -86.182,-86.19 c -10.254,-10.254 -10.254,-26.882 0,-37.136 l 98.216,-98.216 c 10.254,-10.254 26.882,-10.254 37.136,0 l 86.19,86.182 c 46.058,46.058 107.296,71.425 172.43,71.425 65.134,0 126.372,-25.368 172.429,-71.425 46.058,-46.058 71.425,-107.296 71.425,-172.43 0,-65.133 -25.368,-126.372 -71.425,-172.43 -46.058,-46.058 -107.296,-71.425 -172.429,-71.425 -65.133,0 -126.372,25.368 -172.43,71.425 z"
       id="path1" />
    <path
       fill="#17ab55"
       d="m 927.57,1329.098 c -41.522,41.522 -89.985,73.689 -144.041,95.611 -52.167,21.148 -107.263,31.876 -163.749,31.876 -56.486,0 -111.582,-10.728 -163.749,-31.876 -54.056,-21.922 -102.519,-54.089 -144.041,-95.611 -41.522,-41.522 -73.689,-89.985 -95.611,-144.041 -21.148,-52.167 -31.876,-107.263 -31.876,-163.749 0,-56.486 10.728,-111.582 31.876,-163.749 21.922,-54.056 54.089,-102.519 95.611,-144.041 41.522,-41.522 89.985,-73.689 144.041,-95.611 52.167,-21.148 107.263,-31.876 163.749,-31.876 56.486,0 111.582,10.728 163.749,31.876 54.056,21.922 102.519,54.089 144.041,95.611 l 8.939,8.939 31.751,-31.743 c 8.664,-8.664 23.503,-3.263 24.577,8.939 l 19.101,217.971 c 0.782,8.939 -6.7,16.421 -15.638,15.638 L 778.32,914.161 c -12.201,-1.074 -17.602,-15.913 -8.939,-24.577 l 31.768,-31.768 -8.939,-8.939 c -46.058,-46.058 -107.296,-71.425 -172.43,-71.425 -64.468,0 -126.105,25.409 -171.839,70.843 -46.699,46.382 -72.308,108.295 -72.016,174.119 0.291,65.466 26.774,127.795 73.639,173.512 45.492,44.377 105.315,68.904 168.934,69.236 65.641,0.333 128.561,-26.275 174.976,-72.69 z"
       id="path2" />
    <path
       fill="#17ab55"
       d="m 978.521,1278.145 -50.951,50.951 c -41.524,41.524 -89.988,73.694 -144.044,95.611 -52.164,21.154 -107.264,31.877 -163.745,31.877 -187.543,0 -339.572,-152.029 -339.572,-339.561 0,-268.011 242.225,-319.317 242.225,-319.317 -32.092,9.984 -146.478,82.793 -146.478,219.954 -0.01,0.146 -0.01,0.303 -0.01,0.449 -0.021,1.066 -0.021,2.132 -0.021,3.198 v 1.108 c 0,0.679 0.01,1.359 0.021,2.028 -0.01,0.063 -0.01,0.125 0,0.178 0,0.293 0,0.575 0.01,0.857 2.226,194.713 160.766,351.862 356.001,351.862 95.706,10e-4 182.59,-37.761 246.564,-99.195 z"
       id="path3" />
    <path
       fill="#17ab55"
       d="m 1221.477,764.471 50.951,-50.951 c 41.524,-41.524 89.988,-73.694 144.044,-95.611 52.164,-21.154 107.264,-31.877 163.745,-31.877 187.543,0 339.572,152.028 339.572,339.561 0,268.011 -242.225,319.317 -242.225,319.317 32.092,-9.984 146.478,-82.793 146.478,-219.954 0.01,-0.146 0.01,-0.303 0.01,-0.449 0.021,-1.066 0.021,-2.132 0.021,-3.198 v -1.108 c 0,-0.679 -0.01,-1.359 -0.021,-2.028 0.01,-0.063 0.01,-0.125 0,-0.178 0,-0.293 0,-0.575 -0.01,-0.857 -2.226,-194.713 -160.766,-351.862 -356.001,-351.862 -95.706,0 -182.59,37.761 -246.564,99.195 z"
       id="path4" />
    <path
       fill="#17ab55"
       d="m 1823.919,1011.988 c -2.844,-84.064 -51.577,-162.342 -124.689,-203.589 -75.607,-42.663 -171.74,-40.563 -245.716,4.515 -16.9,10.295 -32.536,22.659 -46.468,36.716 -0.178,0.167 -0.345,0.334 -0.523,0.512 l -278.158,278.158 -139.57,139.57 -10.274,10.274 c -63.974,61.434 -150.858,99.196 -246.563,99.196 -193.509,0 -350.94,-154.39 -355.878,-346.713 2.844,84.064 51.577,162.342 124.689,203.589 75.607,42.663 171.74,40.563 245.716,-4.515 16.9,-10.295 32.536,-22.659 46.468,-36.716 0.178,-0.167 0.345,-0.334 0.523,-0.512 l 228.921,-228.921 188.808,-188.808 10.274,-10.274 c 63.974,-61.434 150.858,-99.196 246.563,-99.196 193.508,0.002 350.94,154.391 355.877,346.714 z"
       id="path5" />
  </g>
  <!-- Text -->
  <text
     x="34.047924"
     y="19.577528"
     font-family="Outfit, sans-serif"
     font-size="27.1533px"
     font-weight="700"
     fill="#17ab55"
     id="text5"
     style="stroke-width:0.969759">Livespec</text>
</svg>
