<?xml version="1.0" encoding="UTF-8" standalone="no"?>
<svg
   viewBox="0 0 140.27962 25.143955"
   version="1.1"
   id="svg5"
   sodipodi:docname="logo.svg"
   inkscape:version="1.4 (e7c3feb1, 2024-10-09)"
   width="140.27962"
   height="25.143955"
   xmlns:inkscape="http://www.inkscape.org/namespaces/inkscape"
   xmlns:sodipodi="http://sodipodi.sourceforge.net/DTD/sodipodi-0.dtd"
   xmlns="http://www.w3.org/2000/svg"
   xmlns:svg="http://www.w3.org/2000/svg">
  <sodipodi:namedview
     id="namedview5"
     pagecolor="#505050"
     bordercolor="#eeeeee"
     borderopacity="1"
     inkscape:showpageshadow="0"
     inkscape:pageopacity="0"
     inkscape:pagecheckerboard="0"
     inkscape:deskcolor="#505050"
     inkscape:zoom="5.0364591"
     inkscape:cx="56.090995"
     inkscape:cy="1.5884176"
     inkscape:window-width="1640"
     inkscape:window-height="1055"
     inkscape:window-x="92"
     inkscape:window-y="34"
     inkscape:window-maximized="1"
     inkscape:current-layer="svg5" />
  <defs
     id="defs1">
    <style
       id="style1">
      @import url('https://fonts.googleapis.com/css2?family=Outfit:wght@700=swap');
    </style>
    <filter
       id="shadow">
      <feDropShadow
         dx="0"
         dy="1"
         stdDeviation="2"
         flood-opacity="0.2" />
    </filter>
  </defs>
  <!-- Icon -->
  <g
     transform="matrix(0.01572275,0,0,0.01572275,-2.9008945,-5.1574424)"
     id="g5">
    <path
       fill="#17ab55"
       d="m 1272.43,713.518 c 41.522,-41.522 89.985,-73.689 144.041,-95.611 52.167,-21.148 107.255,-31.876 163.749,-31.876 56.486,0 111.582,10.728 163.749,31.876 54.056,21.922 102.519,54.089 144.033,95.611 41.522,41.522 73.689,89.985 95.611,144.041 21.156,52.167 31.884,107.263 31.884,163.749 0,56.486 -10.728,111.582 -31.884,163.749 -21.914,54.056 -54.089,102.519 -95.603,144.041 -41.522,41.522 -89.985,73.689 -144.041,95.611 -52.167,21.148 -107.263,31.876 -163.749,31.876 -56.495,0 -111.582,-10.728 -163.749,-31.876 -54.056,-21.922 -102.519,-54.089 -144.041,-95.611 l -86.182,-86.19 c -10.254,-10.254 -10.254,-26.882 0,-37.136 l 98.216,-98.216 c 10.254,-10.254 26.882,-10.254 37.136,0 l 86.19,86.182 c 46.058,46.058 107.296,71.425 172.43,71.425 65.134,0 126.372,-25.368 172.429,-71.425 46.058,-46.058 71.425,-107.296 71.425,-172.43 0,-65.133 -25.368,-126.372 -71.425,-172.43 -46.058,-46.058 -107.296,-71.425 -172.429,-71.425 -65.133,0 -126.372,25.368 -172.43,71.425 z"
       id="path1" />
    <path
       fill="#17ab55"
       d="m 927.57,1329.098 c -41.522,41.522 -89.985,73.689 -144.041,95.611 -52.167,21.148 -107.263,31.876 -163.749,31.876 -56.486,0 -111.582,-10.728 -163.749,-31.876 -54.056,-21.922 -102.519,-54.089 -144.041,-95.611 -41.522,-41.522 -73.689,-89.985 -95.611,-144.041 -21.148,-52.167 -31.876,-107.263 -31.876,-163.749 0,-56.486 10.728,-111.582 31.876,-163.749 21.922,-54.056 54.089,-102.519 95.611,-144.041 41.522,-41.522 89.985,-73.689 144.041,-95.611 52.167,-21.148 107.263,-31.876 163.749,-31.876 56.486,0 111.582,10.728 163.749,31.876 54.056,21.922 102.519,54.089 144.041,95.611 l 8.939,8.939 31.751,-31.743 c 8.664,-8.664 23.503,-3.263 24.577,8.939 l 19.101,217.971 c 0.782,8.939 -6.7,16.421 -15.638,15.638 L 778.32,914.161 c -12.201,-1.074 -17.602,-15.913 -8.939,-24.577 l 31.768,-31.768 -8.939,-8.939 c -46.058,-46.058 -107.296,-71.425 -172.43,-71.425 -64.468,0 -126.105,25.409 -171.839,70.843 -46.699,46.382 -72.308,108.295 -72.016,174.119 0.291,65.466 26.774,127.795 73.639,173.512 45.492,44.377 105.315,68.904 168.934,69.236 65.641,0.333 128.561,-26.275 174.976,-72.69 z"
       id="path2" />
    <path
       fill="#17ab55"
       d="m 978.521,1278.145 -50.951,50.951 c -41.524,41.524 -89.988,73.694 -144.044,95.611 -52.164,21.154 -107.264,31.877 -163.745,31.877 -187.543,0 -339.572,-152.029 -339.572,-339.561 0,-268.011 242.225,-319.317 242.225,-319.317 -32.092,9.984 -146.478,82.793 -146.478,219.954 -0.01,0.146 -0.01,0.303 -0.01,0.449 -0.021,1.066 -0.021,2.132 -0.021,3.198 v 1.108 c 0,0.679 0.01,1.359 0.021,2.028 -0.01,0.063 -0.01,0.125 0,0.178 0,0.293 0,0.575 0.01,0.857 2.226,194.713 160.766,351.862 356.001,351.862 95.706,10e-4 182.59,-37.761 246.564,-99.195 z"
       id="path3" />
    <path
       fill="#17ab55"
       d="m 1221.477,764.471 50.951,-50.951 c 41.524,-41.524 89.988,-73.694 144.044,-95.611 52.164,-21.154 107.264,-31.877 163.745,-31.877 187.543,0 339.572,152.028 339.572,339.561 0,268.011 -242.225,319.317 -242.225,319.317 32.092,-9.984 146.478,-82.793 146.478,-219.954 0.01,-0.146 0.01,-0.303 0.01,-0.449 0.021,-1.066 0.021,-2.132 0.021,-3.198 v -1.108 c 0,-0.679 -0.01,-1.359 -0.021,-2.028 0.01,-0.063 0.01,-0.125 0,-0.178 0,-0.293 0,-0.575 -0.01,-0.857 -2.226,-194.713 -160.766,-351.862 -356.001,-351.862 -95.706,0 -182.59,37.761 -246.564,99.195 z"
       id="path4" />
    <path
       fill="#17ab55"
       d="m 1823.919,1011.988 c -2.844,-84.064 -51.577,-162.342 -124.689,-203.589 -75.607,-42.663 -171.74,-40.563 -245.716,4.515 -16.9,10.295 -32.536,22.659 -46.468,36.716 -0.178,0.167 -0.345,0.334 -0.523,0.512 l -278.158,278.158 -139.57,139.57 -10.274,10.274 c -63.974,61.434 -150.858,99.196 -246.563,99.196 -193.509,0 -350.94,-154.39 -355.878,-346.713 2.844,84.064 51.577,162.342 124.689,203.589 75.607,42.663 171.74,40.563 245.716,-4.515 16.9,-10.295 32.536,-22.659 46.468,-36.716 0.178,-0.167 0.345,-0.334 0.523,-0.512 l 228.921,-228.921 188.808,-188.808 10.274,-10.274 c 63.974,-61.434 150.858,-99.196 246.563,-99.196 193.508,0.002 350.94,154.391 355.877,346.714 z"
       id="path5" />
  </g>
  <!-- Text -->
  <path
     d="M 34.137348,19.577529 V 0.40729949 h 4.263068 V 19.577529 Z m 3.28555,0 v -3.747155 h 9.476501 v 3.747155 z m 11.567328,0 V 6.3810253 h 4.154455 V 19.577529 Z M 51.08103,4.5617543 q -0.977519,0 -1.629198,-0.6516792 -0.624526,-0.6788325 -0.624526,-1.629198 0,-0.9775188 0.624526,-1.62919791 Q 50.103511,0 51.08103,0 52.058549,0 52.683075,0.65167919 53.3076,1.3033583 53.3076,2.2808771 q 0,0.9503655 -0.624525,1.629198 -0.624526,0.6516792 -1.602045,0.6516792 z M 60.231683,19.577529 54.638104,6.3810253 h 4.480294 L 62.91986,17.378112 H 60.964822 L 64.766284,6.3810253 h 4.398835 l -5.59358,13.1965037 z m 16.59067,0.298686 q -2.145111,0 -3.828615,-0.868905 -1.656352,-0.896059 -2.606717,-2.470951 -0.950365,-1.574891 -0.950365,-3.557082 0,-1.982191 0.923212,-3.5299289 0.950365,-1.5748913 2.55241,-2.4709502 1.602045,-0.8960589 3.611389,-0.8960589 1.955037,0 3.448469,0.8417523 1.493431,0.8417523 2.335183,2.3351838 0.868906,1.4934319 0.868906,3.4213159 0,0.352993 -0.05431,0.760292 -0.02715,0.380147 -0.135766,0.896059 l -11.377233,0.02715 v -2.851097 l 9.612268,-0.02715 -1.792117,1.194745 q -0.02715,-1.140438 -0.35299,-1.873577 -0.32584,-0.760292 -0.977519,-1.1404385 -0.624526,-0.4072994 -1.547738,-0.4072994 -0.977519,0 -1.710658,0.461606 -0.705986,0.4344529 -1.113285,1.2490519 -0.380146,0.814599 -0.380146,1.982191 0,1.167592 0.407299,2.009344 0.434453,0.814599 1.194745,1.276205 0.787446,0.434453 1.846425,0.434453 0.977518,0 1.764964,-0.32584 0.787446,-0.352993 1.384818,-1.031825 l 2.280878,2.280877 q -0.977519,1.140439 -2.362338,1.710658 -1.384818,0.570219 -3.041169,0.570219 z m 13.169358,0.02715 q -1.167591,0 -2.30803,-0.298687 -1.113285,-0.298686 -2.090804,-0.841752 -0.950366,-0.570219 -1.629198,-1.303358 l 2.362337,-2.389491 q 0.651679,0.705986 1.547738,1.113286 0.896059,0.380146 1.955038,0.380146 0.733139,0 1.113285,-0.217227 0.407299,-0.217226 0.407299,-0.597372 0,-0.48876 -0.488759,-0.733139 -0.461606,-0.271533 -1.194745,-0.461606 -0.733139,-0.217227 -1.547738,-0.461606 -0.814599,-0.24438 -1.547738,-0.678833 -0.733139,-0.434453 -1.194745,-1.194745 -0.461607,-0.787446 -0.461607,-1.982191 0,-1.2762052 0.65168,-2.1994174 0.651679,-0.9503655 1.846424,-1.4934315 1.194745,-0.543066 2.79679,-0.543066 1.683504,0 3.095476,0.5973726 1.439125,0.5702193 2.335184,1.7106579 L 93.277261,10.6984 Q 92.652735,9.9652608 91.865289,9.6665745 91.104997,9.3678883 90.371858,9.3678883 q -0.705986,0 -1.058979,0.2172263 -0.352993,0.1900731 -0.352993,0.5702194 0,0.4073 0.461606,0.651679 0.461606,0.24438 1.194745,0.434453 0.733139,0.190073 1.547738,0.461606 0.814599,0.271533 1.547738,0.733139 0.73314,0.461606 1.194746,1.249052 0.461606,0.760292 0.461606,2.009344 0,1.927884 -1.466278,3.068323 -1.439125,1.140439 -3.910076,1.140439 z m 15.233009,-0.05431 q -1.33051,0 -2.4438,-0.515913 -1.11328,-0.515912 -1.81927,-1.411971 -0.70598,-0.923212 -0.8146,-2.090804 V 10.26394 q 0.10862,-1.1675917 0.8146,-2.1179572 0.70599,-0.9503655 1.81927,-1.4934315 1.11329,-0.543066 2.4438,-0.543066 1.87358,0 3.3127,0.8960589 1.46628,0.8960589 2.28088,2.4437969 0.84175,1.5477379 0.84175,3.5299289 0,1.982191 -0.84175,3.529929 -0.8146,1.547738 -2.28088,2.443797 -1.43912,0.896059 -3.3127,0.896059 z m -7.602924,5.294893 V 6.3810253 h 4.154454 v 3.3941624 l -0.67883,3.2040893 0.62452,3.20409 v 8.960588 z M 104.46443,16.1019 q 0.89606,0 1.54774,-0.4073 0.67883,-0.407299 1.05897,-1.113285 0.38015,-0.705986 0.38015,-1.602045 0,-0.923212 -0.38015,-1.629198 -0.38014,-0.705985 -1.05897,-1.086132 -0.65168,-0.4072994 -1.52059,-0.4072994 -0.86891,0 -1.54774,0.4072994 -0.65168,0.380147 -1.03182,1.086132 -0.38015,0.705986 -0.38015,1.629198 0,0.896059 0.35299,1.602045 0.38015,0.705986 1.05898,1.113285 0.67883,0.4073 1.52059,0.4073 z m 15.83035,3.774308 q -2.14511,0 -3.82861,-0.868905 -1.65635,-0.896059 -2.60672,-2.470951 -0.95036,-1.574891 -0.95036,-3.557082 0,-1.982191 0.92321,-3.5299289 0.95036,-1.5748913 2.55241,-2.4709502 1.60204,-0.8960589 3.61139,-0.8960589 1.95504,0 3.44847,0.8417523 1.49343,0.8417523 2.33518,2.3351838 0.86891,1.4934319 0.86891,3.4213159 0,0.352993 -0.0543,0.760292 -0.0272,0.380147 -0.13577,0.896059 l -11.37723,0.02715 v -2.851097 l 9.61227,-0.02715 -1.79212,1.194745 q -0.0272,-1.140439 -0.35299,-1.873578 -0.32584,-0.760292 -0.97752,-1.1404385 -0.62453,-0.4072994 -1.54774,-0.4072994 -0.97752,0 -1.71066,0.461606 -0.70598,0.4344529 -1.11328,1.2490519 -0.38015,0.814599 -0.38015,1.982191 0,1.167592 0.4073,2.009344 0.43445,0.814599 1.19475,1.276205 0.78744,0.434453 1.84642,0.434453 0.97752,0 1.76497,-0.32584 0.78744,-0.352993 1.38481,-1.031825 l 2.28088,2.280877 q -0.97752,1.140439 -2.36234,1.710658 -1.38481,0.570219 -3.04117,0.570219 z m 14.74425,0 q -2.0365,0 -3.69285,-0.896059 -1.65635,-0.896058 -2.60672,-2.47095 -0.95036,-1.574891 -0.95036,-3.529929 0,-1.982191 0.95036,-3.5299289 0.97752,-1.5748913 2.63387,-2.4709502 1.65636,-0.8960589 3.72001,-0.8960589 1.54773,0 2.82394,0.543066 1.30336,0.5159127 2.30803,1.5748914 l -2.66102,2.6610236 q -0.46161,-0.515913 -1.08613,-0.760292 -0.59738,-0.2443804 -1.38482,-0.2443804 -0.89606,0 -1.60205,0.4072994 -0.67883,0.380147 -1.08613,1.086132 -0.38015,0.678833 -0.38015,1.602045 0,0.923212 0.38015,1.629198 0.4073,0.705986 1.11329,1.113285 0.70598,0.4073 1.57489,0.4073 0.8146,0 1.43912,-0.271533 0.65168,-0.298687 1.11329,-0.814599 l 2.63387,2.661023 q -1.03183,1.086132 -2.33519,1.656351 -1.30336,0.543066 -2.9054,0.543066 z"
     id="text5"
     style="font-weight:700;font-size:27.1533px;font-family:Outfit, sans-serif;fill:#17ab55;stroke-width:0.969759"
     aria-label="Livespec" />
</svg>
