<?xml version="1.0" encoding="UTF-8" standalone="no"?>
<svg
   viewBox="0 0 138.47627 24.744003"
   version="1.1"
   id="svg5"
   sodipodi:docname="logo.svg"
   inkscape:version="1.4 (e7c3feb1, 2024-10-09)"
   width="138.47627"
   height="24.744003"
   xmlns:inkscape="http://www.inkscape.org/namespaces/inkscape"
   xmlns:sodipodi="http://sodipodi.sourceforge.net/DTD/sodipodi-0.dtd"
   xmlns="http://www.w3.org/2000/svg"
   xmlns:svg="http://www.w3.org/2000/svg">
  <sodipodi:namedview
     id="namedview5"
     pagecolor="#505050"
     bordercolor="#eeeeee"
     borderopacity="1"
     inkscape:showpageshadow="0"
     inkscape:pageopacity="0"
     inkscape:pagecheckerboard="0"
     inkscape:deskcolor="#505050"
     inkscape:zoom="1.3360986"
     inkscape:cx="56.507807"
     inkscape:cy="193.09953"
     inkscape:window-width="1640"
     inkscape:window-height="1055"
     inkscape:window-x="92"
     inkscape:window-y="34"
     inkscape:window-maximized="1"
     inkscape:current-layer="svg5" />
  <defs
     id="defs1">
    <style
       id="style1">
      @import url('https://fonts.googleapis.com/css2?family=Outfit:wght@700=swap');
    </style>
    <filter
       id="shadow">
      <feDropShadow
         dx="0"
         dy="1"
         stdDeviation="2"
         flood-opacity="0.2" />
    </filter>
  </defs>
  <!-- Icon -->
  <g
     transform="matrix(0.01572275,0,0,0.01572275,-3.7039041,-4.9570189)"
     id="g5">
    <g
       id="g1"
       transform="matrix(0.93897815,0,0,0.93897815,122.98935,88.88351)">
      <path
         fill="#17ab55"
         d="m 1284.597,691.79965 c 44.4519,-44.45189 96.3346,-78.88866 154.2049,-102.35753 55.848,-22.64025 114.8232,-34.12524 175.3035,-34.12524 60.4718,0 119.4555,11.48499 175.3035,34.12524 57.8703,23.46887 109.753,57.90564 154.1963,102.35753 44.4519,44.45188 78.8886,96.33454 102.3575,154.20485 22.6488,55.84802 34.1338,114.83172 34.1338,175.3035 0,60.4718 -11.485,119.4555 -34.1338,175.3035 -23.4603,57.8703 -57.9056,109.753 -102.349,154.2049 -44.4518,44.4518 -96.3345,78.8886 -154.2048,102.3575 -55.848,22.6402 -114.8317,34.1252 -175.3035,34.1252 -60.4814,0 -119.4555,-11.485 -175.3035,-34.1252 -57.8703,-23.4689 -109.753,-57.9057 -154.2049,-102.3575 l -99.5086,-99.5087 c -10.9775,-10.9776 -10.9775,-28.7789 0,-39.7564 l 105.1464,-105.1464 c 10.9775,-10.9775 28.7788,-10.9775 39.7564,0 l 99.5172,99.5001 c 49.3079,49.308 114.867,76.465 184.597,76.465 69.73,0 135.2891,-27.1581 184.596,-76.465 49.3079,-49.3079 76.4649,-114.867 76.4649,-184.597 0,-69.72893 -27.158,-135.28909 -76.4649,-184.59705 -49.308,-49.30795 -114.8671,-76.4649 -184.596,-76.4649 -69.7289,0 -135.2891,27.15802 -184.597,76.4649 z"
         id="path1"
         sodipodi:nodetypes="ccsccsscccscccssccssscscc"
         style="stroke-width:1.07056" />
      <path
         fill="#17ab55"
         d="m 915.40295,1350.8164 c -44.45188,44.4518 -96.33454,78.8886 -154.20485,102.3575 -55.84802,22.6402 -114.83172,34.1252 -175.3035,34.1252 -60.47178,0 -119.45547,-11.485 -175.30349,-34.1252 -57.87032,-23.4689 -109.75297,-57.9057 -154.20486,-102.3575 -44.45188,-44.4519 -78.88866,-96.3346 -102.35753,-154.2049 -22.64025,-55.848 -34.12524,-114.8317 -34.12524,-175.3035 0,-60.47178 11.48499,-119.45548 34.12524,-175.3035 23.46887,-57.87031 57.90565,-109.75297 102.35753,-154.20485 44.45189,-44.45189 96.33454,-78.88866 154.20486,-102.35753 55.84802,-22.64025 114.83171,-34.12524 175.30349,-34.12524 60.47178,0 119.45548,11.48499 175.3035,34.12524 57.87031,23.46887 95.28238,43.39452 139.73427,87.84641 l 9.56975,9.56975 33.99142,-33.98285 c 9.27535,-9.27535 25.16143,-3.49325 26.31121,9.56975 l 20.42174,233.35153 c 0.83718,9.56975 -7.17277,17.5797 -16.74146,16.74145 L 741.12388,892.08935 c -13.06193,-1.14979 -18.84404,-17.03586 -9.56976,-26.31121 l 34.00962,-34.00962 -9.56975,-9.56976 C 706.68603,772.89081 655.6246,760.24497 585.8946,760.24497 c -69.017,0 -135.00325,27.20192 -183.96434,75.84185 -49.99419,49.65481 -77.41022,115.93653 -77.09761,186.40518 0.31153,70.0855 28.66323,136.8125 78.83513,185.7554 48.70202,47.5084 112.74626,73.7661 180.85436,74.1215 70.27278,0.3565 137.63255,-28.129 187.3227,-77.8192 z"
         id="path2"
         sodipodi:nodetypes="ccscscscscscsccccccccsscccccc"
         style="stroke-width:1.07056" />
      <path
         fill="#17ab55"
         d="m 969.94917,1296.268 -54.54622,54.5462 c -44.45402,44.454 -96.33775,78.894 -154.20806,102.3575 -55.84481,22.6467 -114.83279,34.1263 -175.29922,34.1263 -200.77645,0 -363.53296,-162.7565 -363.53296,-363.5211 0,-286.92249 259.31694,-341.84876 259.31694,-341.84876 -34.35648,10.6885 -156.81382,88.63506 -156.81382,235.47446 -0.0107,0.1563 -0.0107,0.3244 -0.0107,0.4807 -0.0225,1.1412 -0.0225,2.2824 -0.0225,3.4236 v 1.1862 c 0,0.7269 0.0107,1.4549 0.0225,2.1711 -0.0107,0.068 -0.0107,0.1338 0,0.1906 0,0.3136 0,0.6155 0.0107,0.9174 2.38308,208.4524 172.11001,376.6902 381.12123,376.6902 102.45923,0 195.47396,-40.4255 263.96211,-106.1944 z"
         id="path3"
         style="stroke-width:1.07056" />
      <path
         fill="#17ab55"
         d="m 1230.0487,746.34801 54.5462,-54.54622 c 44.454,-44.45403 96.3378,-78.89401 154.2081,-102.35753 55.8448,-22.64667 114.8328,-34.12631 175.2992,-34.12631 200.7764,0 363.5329,162.75544 363.5329,363.52119 0,286.92246 -259.3169,341.84876 -259.3169,341.84876 34.3565,-10.6885 156.8138,-88.6351 156.8138,-235.4745 0.011,-0.1563 0.011,-0.3244 0.011,-0.4807 0.022,-1.1412 0.022,-2.2824 0.022,-3.4236 v -1.1862 c 0,-0.7269 -0.011,-1.4549 -0.022,-2.1711 0.011,-0.067 0.011,-0.1338 0,-0.1906 0,-0.3136 0,-0.6155 -0.011,-0.9174 -2.383,-208.45243 -172.11,-376.69021 -381.1212,-376.69021 -102.4592,0 -195.474,40.4255 -263.9621,106.19442 z"
         id="path4"
         style="stroke-width:1.07056" />
      <path
         fill="#17ab55"
         d="m 1875.0003,1011.3304 c -3.0446,-89.99578 -55.2163,-173.79725 -133.4873,-217.95474 -80.942,-45.67339 -183.8583,-43.42521 -263.0543,4.83359 -18.0925,11.02144 -34.8318,24.25787 -49.7468,39.30677 -0.1906,0.17878 -0.3694,0.35756 -0.56,0.54812 l -297.7854,297.78546 -149.41837,149.4184 -10.99896,10.9989 c -68.48815,65.7689 -161.50288,106.1955 -263.96104,106.1955 -207.16343,0 -375.70311,-165.2841 -380.98955,-371.1778 3.04468,89.9957 55.21639,173.7972 133.48734,217.9547 80.942,45.6734 183.85836,43.4252 263.05427,-4.8336 18.0925,-11.0215 34.83181,-24.2579 49.74689,-39.3068 0.19056,-0.1788 0.36934,-0.3576 0.5599,-0.5481 l 245.07422,-245.07419 202.1307,-202.13072 10.9989,-10.99895 c 68.4882,-65.76892 161.5029,-106.1955 263.9611,-106.1955 207.1623,0.002 375.7031,165.28518 380.9884,371.17896 z"
         id="path5"
         style="stroke-width:1.07056" />
    </g>
  </g>
  <!-- Text -->
  <path
     d="M 32.334,19.577529 V 0.40729949 h 4.263068 V 19.577529 Z m 3.28555,0 v -3.747155 h 9.476501 v 3.747155 z m 11.567328,0 V 6.3810253 h 4.154455 V 19.577529 Z M 49.277682,4.5617543 c -0.651679,0 -1.194745,-0.2172264 -1.629198,-0.6516792 -0.416351,-0.452555 -0.624526,-0.995621 -0.624526,-1.629198 0,-0.6516792 0.208175,-1.1947452 0.624526,-1.62919791 C 48.082937,0.2172264 48.626003,0 49.277682,0 c 0.651679,0 1.185694,0.2172264 1.602045,0.65167919 0.41635,0.43445271 0.624525,0.97751871 0.624525,1.62919791 0,0.633577 -0.208175,1.176643 -0.624525,1.629198 -0.416351,0.4344528 -0.950366,0.6516792 -1.602045,0.6516792 z M 58.428335,19.577529 52.834756,6.3810253 H 57.31505 L 61.116512,17.378112 H 59.161474 L 62.962936,6.3810253 h 4.398835 l -5.59358,13.1965037 z m 16.59067,0.298686 c -1.430074,0 -2.706279,-0.289635 -3.828615,-0.868905 -1.104235,-0.597373 -1.97314,-1.421023 -2.606717,-2.470951 -0.633577,-1.049927 -0.950365,-2.235621 -0.950365,-3.557082 0,-1.321461 0.307737,-2.498104 0.923212,-3.5299289 0.633577,-1.0499275 1.48438,-1.8735776 2.55241,-2.4709502 1.06803,-0.5973726 2.271826,-0.8960589 3.611389,-0.8960589 1.303358,0 2.452848,0.2805841 3.448469,0.8417523 0.995621,0.5611682 1.774015,1.3395628 2.335183,2.3351838 0.579271,0.9956209 0.868906,2.1360599 0.868906,3.4213159 0,0.235329 -0.0181,0.488759 -0.05431,0.760292 -0.0181,0.253431 -0.06336,0.552118 -0.135766,0.896059 l -11.377233,0.02715 v -2.851097 l 9.612268,-0.02715 -1.792117,1.194745 c -0.0181,-0.760292 -0.135763,-1.384818 -0.35299,-1.873577 C 77.055502,10.300152 76.729663,9.9200055 76.29521,9.6665745 75.878859,9.3950416 75.362947,9.2592751 74.747472,9.2592751 c -0.651679,0 -1.221899,0.1538687 -1.710658,0.461606 -0.470657,0.2896349 -0.841752,0.7059859 -1.113285,1.2490519 -0.253431,0.543066 -0.380146,1.203796 -0.380146,1.982191 0,0.778395 0.135766,1.448176 0.407299,2.009344 0.289635,0.543066 0.687884,0.968468 1.194745,1.276205 0.524964,0.289635 1.140439,0.434453 1.846425,0.434453 0.651679,0 1.24,-0.108613 1.764964,-0.32584 0.524964,-0.235329 0.98657,-0.57927 1.384818,-1.031825 l 2.280878,2.280877 c -0.651679,0.760293 -1.439125,1.330512 -2.362338,1.710658 -0.923212,0.380146 -1.936935,0.570219 -3.041169,0.570219 z m 13.169358,0.02715 c -0.778394,0 -1.547737,-0.09956 -2.30803,-0.298687 -0.74219,-0.199124 -1.439125,-0.479708 -2.090804,-0.841752 -0.633577,-0.380146 -1.176643,-0.814599 -1.629198,-1.303358 l 2.362337,-2.389491 c 0.434453,0.470657 0.950365,0.841753 1.547738,1.113286 0.597373,0.253431 1.249052,0.380146 1.955038,0.380146 0.488759,0 0.859854,-0.07241 1.113285,-0.217227 0.271533,-0.144817 0.407299,-0.343941 0.407299,-0.597372 0,-0.32584 -0.16292,-0.57022 -0.488759,-0.733139 -0.307737,-0.181022 -0.705986,-0.334891 -1.194745,-0.461606 -0.488759,-0.144818 -1.004672,-0.298687 -1.547738,-0.461606 -0.543066,-0.16292 -1.058979,-0.389198 -1.547738,-0.678833 -0.488759,-0.289635 -0.887008,-0.687884 -1.194745,-1.194745 -0.307738,-0.524964 -0.461607,-1.185694 -0.461607,-1.982191 0,-0.8508035 0.217227,-1.5839426 0.65168,-2.1994174 0.434453,-0.633577 1.049927,-1.1313875 1.846424,-1.4934315 0.796497,-0.362044 1.72876,-0.543066 2.79679,-0.543066 1.122336,0 2.154161,0.1991242 3.095476,0.5973726 0.959417,0.3801462 1.737811,0.9503655 2.335184,1.7106579 L 91.473913,10.6984 C 91.057562,10.209641 90.586905,9.8656987 90.061941,9.6665745 89.55508,9.4674504 89.057269,9.3678883 88.56851,9.3678883 c -0.470657,0 -0.82365,0.072409 -1.058979,0.2172263 -0.235329,0.1267154 -0.352993,0.3167885 -0.352993,0.5702194 0,0.271533 0.153869,0.48876 0.461606,0.651679 0.307737,0.16292 0.705986,0.307738 1.194745,0.434453 0.488759,0.126715 1.004672,0.280584 1.547738,0.461606 0.543066,0.181022 1.058979,0.425402 1.547738,0.733139 0.48876,0.307737 0.887009,0.724088 1.194746,1.249052 0.307737,0.506861 0.461606,1.176643 0.461606,2.009344 0,1.285256 -0.488759,2.30803 -1.466278,3.068323 -0.959417,0.760293 -2.262775,1.140439 -3.910076,1.140439 z m 15.233007,-0.05431 c -0.88701,0 -1.70161,-0.171971 -2.4438,-0.515913 -0.74219,-0.343941 -1.34861,-0.814598 -1.81927,-1.411971 -0.470653,-0.615475 -0.742187,-1.312409 -0.8146,-2.090804 V 10.26394 c 0.07241,-0.7783945 0.343947,-1.4843802 0.8146,-2.1179572 0.47066,-0.633577 1.07708,-1.1313875 1.81927,-1.4934315 0.74219,-0.362044 1.55679,-0.543066 2.4438,-0.543066 1.24905,0 2.35329,0.2986863 3.3127,0.8960589 0.97752,0.5973726 1.73781,1.4119716 2.28088,2.4437969 0.56117,1.0318249 0.84175,2.2084679 0.84175,3.5299289 0,1.321461 -0.28058,2.498104 -0.84175,3.529929 -0.54307,1.031825 -1.30336,1.846424 -2.28088,2.443797 -0.95941,0.597373 -2.06365,0.896059 -3.3127,0.896059 z m -7.602922,4.894942 V 6.3810253 H 99.9729 v 3.3941624 l -0.67883,3.2040893 0.62452,3.20409 v 8.560637 z M 102.66108,16.1019 c 0.59737,0 1.11329,-0.135767 1.54774,-0.4073 0.45255,-0.271533 0.80554,-0.642628 1.05897,-1.113285 0.25343,-0.470657 0.38015,-1.004672 0.38015,-1.602045 0,-0.615475 -0.12672,-1.158541 -0.38015,-1.629198 -0.25343,-0.470657 -0.60642,-0.832701 -1.05897,-1.086132 -0.43445,-0.2715329 -0.94132,-0.4072994 -1.52059,-0.4072994 -0.57927,0 -1.09519,0.1357665 -1.54774,0.4072994 -0.43445,0.253431 -0.77839,0.615475 -1.03182,1.086132 -0.25343,0.470657 -0.38015,1.013723 -0.38015,1.629198 0,0.597373 0.11766,1.131388 0.35299,1.602045 0.25343,0.470657 0.60643,0.841752 1.05898,1.113285 0.45255,0.271533 0.95942,0.4073 1.52059,0.4073 z m 15.83035,3.774308 c -1.43007,0 -2.70628,-0.289635 -3.82861,-0.868905 -1.10423,-0.597373 -1.97314,-1.421023 -2.60672,-2.470951 -0.63357,-1.049927 -0.95036,-2.235621 -0.95036,-3.557082 0,-1.321461 0.30774,-2.498104 0.92321,-3.5299289 0.63357,-1.0499275 1.48438,-1.8735776 2.55241,-2.4709502 1.06803,-0.5973726 2.27182,-0.8960589 3.61139,-0.8960589 1.30336,0 2.45285,0.2805841 3.44847,0.8417523 0.99562,0.5611682 1.77401,1.3395628 2.33518,2.3351838 0.57927,0.9956209 0.86891,2.1360599 0.86891,3.4213159 0,0.235329 -0.0181,0.488759 -0.0543,0.760292 -0.0181,0.253431 -0.0634,0.552118 -0.13577,0.896059 l -11.37723,0.02715 v -2.851097 l 9.61227,-0.02715 -1.79212,1.194745 c -0.0181,-0.760293 -0.1358,-1.384819 -0.35299,-1.873578 -0.21723,-0.506861 -0.54307,-0.8870075 -0.97752,-1.1404385 -0.41635,-0.2715329 -0.93227,-0.4072994 -1.54774,-0.4072994 -0.65168,0 -1.2219,0.1538687 -1.71066,0.461606 -0.47065,0.2896349 -0.84175,0.7059859 -1.11328,1.2490519 -0.25343,0.543066 -0.38015,1.203796 -0.38015,1.982191 0,0.778395 0.13577,1.448176 0.4073,2.009344 0.28963,0.543066 0.68788,0.968468 1.19475,1.276205 0.52496,0.289635 1.14043,0.434453 1.84642,0.434453 0.65168,0 1.24,-0.108613 1.76497,-0.32584 0.52496,-0.235329 0.98656,-0.57927 1.38481,-1.031825 l 2.28088,2.280877 c -0.65168,0.760293 -1.43913,1.330512 -2.36234,1.710658 -0.92321,0.380146 -1.93693,0.570219 -3.04117,0.570219 z m 14.74425,0 c -1.35767,0 -2.58862,-0.298686 -3.69285,-0.896059 -1.10423,-0.597372 -1.97314,-1.421022 -2.60672,-2.47095 -0.63357,-1.049927 -0.95036,-2.22657 -0.95036,-3.529929 0,-1.321461 0.31679,-2.498104 0.95036,-3.5299289 0.65168,-1.0499275 1.52964,-1.8735776 2.63387,-2.4709502 1.10424,-0.5973726 2.34424,-0.8960589 3.72001,-0.8960589 1.03182,0 1.97313,0.181022 2.82394,0.543066 0.86891,0.3439418 1.63825,0.8689056 2.30803,1.5748914 l -2.66102,2.6610236 c -0.30774,-0.343942 -0.66978,-0.597373 -1.08613,-0.760292 -0.39825,-0.1629203 -0.85986,-0.2443804 -1.38482,-0.2443804 -0.59737,0 -1.13139,0.1357665 -1.60205,0.4072994 -0.45255,0.253431 -0.8146,0.615475 -1.08613,1.086132 -0.25343,0.452555 -0.38015,0.98657 -0.38015,1.602045 0,0.615475 0.12672,1.158541 0.38015,1.629198 0.27153,0.470657 0.64263,0.841752 1.11329,1.113285 0.47065,0.271533 0.99562,0.4073 1.57489,0.4073 0.54307,0 1.02277,-0.09051 1.43912,-0.271533 0.43445,-0.199125 0.80555,-0.470658 1.11329,-0.814599 l 2.63387,2.661023 c -0.68789,0.724088 -1.46628,1.276205 -2.33519,1.656351 -0.86891,0.362044 -1.83737,0.543066 -2.9054,0.543066 z"
     id="text5"
     style="font-weight:700;font-size:27.1533px;font-family:Outfit, sans-serif;fill:#17ab55;stroke-width:0.969759"
     aria-label="Livespec"
     sodipodi:nodetypes="cccccccccccccccscscssscscccccccccscsscssscsccccccccsccsccscccssscccccscsccsscscssccccscssssscscsssscccsssccsccsccccccccscssscscsscssscsscssscsccccccccsccsccscccssssssscssccccsccscssccccs" />
</svg>
